<svg width="78" height="79" viewBox="0 0 78 79" fill="none" xmlns="http://www.w3.org/2000/svg">
<path d="M49.9551 19.5716L31.5601 0.973669C31.2579 0.665147 30.8985 0.420266 30.5024 0.253153C30.1064 0.0860392 29.6816 0 29.2526 0C28.8235 0 28.3987 0.0860392 28.0027 0.253153C27.6067 0.420266 27.2472 0.665147 26.9451 0.973669C26.3398 1.5904 26 2.42468 26 3.29429C26 4.16391 26.3398 4.99819 26.9451 5.61492L43.0326 22.0733L26.9451 38.367C26.3398 38.9837 26 39.818 26 40.6876C26 41.5572 26.3398 42.3915 26.9451 43.0083C27.2461 43.3193 27.605 43.5667 28.0011 43.7362C28.3972 43.9057 28.8226 43.9939 29.2526 43.9958C29.6826 43.9939 30.1079 43.9057 30.504 43.7362C30.9001 43.5667 31.2591 43.3193 31.5601 43.0083L49.9551 24.4103C50.285 24.1021 50.5482 23.728 50.7283 23.3116C50.9084 22.8952 51.0014 22.4455 51.0014 21.991C51.0014 21.5364 50.9084 21.0867 50.7283 20.6703C50.5482 20.2539 50.285 19.8798 49.9551 19.5716Z" fill="#424866"/>
</svg>
