<svg width="80" height="81" viewBox="0 0 80 81" fill="none" xmlns="http://www.w3.org/2000/svg">
<g clip-path="url(#clip0_3_25)">
<path d="M28.582 60.29L46.6817 79.3556C46.9789 79.6719 47.335 79.9253 47.7295 80.1014C48.124 80.2775 48.5491 80.3727 48.9802 80.3815C49.4112 80.3903 49.8398 80.3126 50.2412 80.1529C50.6426 79.9931 51.0088 79.7545 51.3187 79.4507C51.9396 78.8435 52.2982 78.0123 52.3161 77.1385C52.334 76.2647 52.0099 75.4195 51.4144 74.7873L35.5891 57.919L52.0891 41.8789C52.71 41.2717 53.0686 40.4404 53.0865 39.5666C53.1045 38.6929 52.7803 37.8476 52.1848 37.2155C51.8887 36.8968 51.5332 36.6407 51.1387 36.4623C50.7442 36.2838 50.3186 36.1864 49.8866 36.1757C49.4545 36.1687 49.0253 36.2485 48.6238 36.4107C48.2223 36.5729 47.8566 36.8141 47.5477 37.1204L28.6817 55.4281C28.3439 55.731 28.0717 56.1015 27.8822 56.5162C27.6927 56.9308 27.59 57.3807 27.5806 57.8375C27.5713 58.2942 27.6554 58.7479 27.8278 59.17C28.0001 59.5921 28.2569 59.9734 28.582 60.29Z" fill="#424866"/>
</g>
<defs>
<clipPath id="clip0_3_25">
<rect width="78" height="79" fill="white" transform="translate(78.3724 80.9842) scale(1.00499) rotate(-178.825)"/>
</clipPath>
</defs>
</svg>
